<svg xmlns="http://www.w3.org/2000/svg" viewBox="0 0 512 512" style="enable-background:new 0 0 512 512" xml:space="preserve"><path style="fill:#f9bd38" d="M512 256c0 70.65-28.63 134.63-74.91 180.95a257.633 257.633 0 0 1-34.01 28.6C361.46 494.82 310.74 512 256 512c-15.24 0-30.17-1.33-44.67-3.89a251.239 251.239 0 0 1-29.78-7.11c-26.24-7.96-50.7-20.03-72.63-35.45a255.91 255.91 0 0 1-30.08-24.75C30.25 394.21 0 328.63 0 256 0 114.62 114.62 0 256 0s256 114.62 256 256z"/><path style="fill:#48507c" d="M437.09 375.32v61.63a257.633 257.633 0 0 1-34.01 28.6H108.92a255.91 255.91 0 0 1-30.08-24.75v-65.48h358.25z"/><path style="fill:#3e436d" d="M437.084 376.079H78.849l34.118-56.484h291.137z"/><circle style="fill:#383d5e" cx="257.966" cy="420.432" r="27.294"/><circle style="fill:#32314b" cx="257.966" cy="420.432" r="15.922"/><path style="fill:#fff" d="M266.5 420.43c0 4.8-.4 9.52-1.14 14.11a85.87 85.87 0 0 1-3.11 12.84 86.342 86.342 0 0 1-8.28 18.17c-8.08 13.42-25.94 31.74-42.64 42.56a251.239 251.239 0 0 1-29.78-7.11c19.43-6.02 41.09-22.87 51.56-35.45 5.15-6.2 9.27-13.29 12.08-21.01 1.35-3.68 2.39-7.51 3.11-11.45.74-4.11 1.13-8.34 1.13-12.66 0-4.71 3.82-8.53 8.54-8.53 4.71 0 8.53 3.82 8.53 8.53z"/><path style="fill:#fe4583" d="M200.598 357.504h-65.961v-25.02c0-8.375 6.789-15.163 15.163-15.163h35.634c8.375 0 15.163 6.789 15.163 15.163v25.02z"/><path style="fill:#ce3c74" d="M200.598 340.918v16.672h-65.961v-25.02c0-8.372 6.787-15.16 15.16-15.16h2.275v3.368c0 11.122 9.016 20.139 20.139 20.139h28.387z"/><path style="fill:#fff" d="M125.161 349.543h84.915v14.316h-84.915z"/><path style="fill:#fe4583" d="M388.923 357.504h-65.961v-25.02c0-8.375 6.789-15.163 15.163-15.163h35.634c8.374 0 15.163 6.789 15.163 15.163v25.02z"/><path style="fill:#ce3c74" d="M388.923 340.918v16.672h-65.961v-25.02c0-8.372 6.787-15.16 15.16-15.16h2.275v3.368c0 11.122 9.016 20.139 20.139 20.139h28.387z"/><path style="fill:#fff" d="M313.485 349.543H398.4v14.316h-84.915zM280.83 141.937v196.912c0 6.307-2.563 12.024-6.698 16.169a22.798 22.798 0 0 1-16.169 6.698c-12.624 0-22.867-10.242-22.867-22.867V141.937h45.734z"/><path style="fill:#c9c9c9" d="M280.83 183.897v-19.056c-7.059 2.848-14.776 4.411-22.864 4.411v-27.316H235.1v22.906l-.003-.001v19.056l.003.001v154.95c0 12.624 10.242 22.867 22.867 22.867a22.61 22.61 0 0 0 11.433-3.077c-6.831-3.945-11.433-11.329-11.433-19.789v-150.54c8.088-.001 15.804-1.563 22.863-4.412z"/><circle style="fill:#fe4583" cx="257.966" cy="107.955" r="61.296"/><path style="fill:#ce3c74" d="M304.488 147.853c-11.233 13.101-27.917 21.4-46.525 21.4-33.853 0-61.293-27.45-61.293-61.302 0-27.259 17.798-50.364 42.409-58.33-9.213 10.719-14.778 24.658-14.778 39.912 0 33.853 27.44 61.293 61.293 61.293a61.001 61.001 0 0 0 18.894-2.973z"/><circle style="fill:#fc7aac" cx="280.83" cy="89.535" r="17.861"/></svg>